<svg width="372" height="484" viewBox="0 0 372 484" fill="none" xmlns="http://www.w3.org/2000/svg">
<g clip-path="url(#clip0_163_112)">
<path d="M372 366.492V200.809V2.81696H371.063C370.125 2.81696 369.313 2.12709 369.313 1.20727V0H367.501V1.20727C367.501 2.0696 366.688 2.81696 365.751 2.81696H360.314C359.377 2.81696 358.565 2.12709 358.565 1.20727V0H356.815V1.20727C356.815 2.0696 356.003 2.81696 355.065 2.81696H349.629C348.691 2.81696 347.879 2.12709 347.879 1.20727V0H346.067V1.20727C346.067 2.0696 345.254 2.81696 344.317 2.81696H338.881C337.943 2.81696 337.131 2.12709 337.131 1.20727V0H335.319V1.20727C335.319 2.0696 334.506 2.81696 333.569 2.81696H328.132C327.195 2.81696 326.383 2.12709 326.383 1.20727V0H324.57V1.20727C324.57 2.0696 323.758 2.81696 322.821 2.81696H317.447C316.509 2.81696 315.697 2.12709 315.697 1.20727V0H313.947V1.20727C313.947 2.0696 313.135 2.81696 312.198 2.81696H306.761C305.761 2.81696 305.011 2.12709 305.011 1.20727V0H303.199V1.20727C303.199 2.0696 302.387 2.81696 301.449 2.81696H296.013C295.013 2.81696 294.263 2.12709 294.263 1.20727V0H292.451V1.20727C292.451 2.0696 291.638 2.81696 290.701 2.81696H285.265C284.327 2.81696 283.515 2.12709 283.515 1.20727V0H281.703V1.20727C281.703 2.0696 280.89 2.81696 279.953 2.81696H274.516C273.579 2.81696 272.767 2.12709 272.767 1.20727V0H270.954V1.20727C270.954 2.0696 270.142 2.81696 269.205 2.81696H263.768C262.768 2.81696 262.018 2.12709 262.018 1.20727V0H260.206V1.20727C260.206 2.0696 259.394 2.81696 258.457 2.81696H253.02C252.083 2.81696 251.27 2.12709 251.27 1.20727V0H249.458V1.20727C249.458 2.0696 248.646 2.81696 247.708 2.81696H242.459C241.459 2.81696 240.71 2.12709 240.71 1.20727V0H238.897V1.20727C238.897 2.0696 238.085 2.81696 237.148 2.81696H231.711C230.774 2.81696 229.961 2.12709 229.961 1.20727V0H228.149V1.20727C228.149 2.0696 227.337 2.81696 226.399 2.81696H220.963C220.026 2.81696 219.213 2.12709 219.213 1.20727V0H217.463V1.20727C217.463 2.0696 216.651 2.81696 215.714 2.81696H210.277C209.277 2.81696 208.527 2.12709 208.527 1.20727V0H206.715V1.20727C206.715 2.0696 205.903 2.81696 204.966 2.81696H199.529C198.529 2.81696 197.779 2.12709 197.779 1.20727V0H195.967V1.20727C195.967 2.0696 195.155 2.81696 194.217 2.81696H188.781C187.781 2.81696 187.031 2.12709 187.031 1.20727V0H185.219V1.20727C185.219 2.0696 184.407 2.81696 183.469 2.81696H178.095C177.095 2.81696 176.345 2.12709 176.345 1.20727V0H174.533V1.20727C174.533 2.0696 173.721 2.81696 172.783 2.81696H167.347C166.41 2.81696 165.597 2.12709 165.597 1.20727V0H163.785V1.20727C163.785 2.0696 162.973 2.81696 162.035 2.81696H156.599C155.661 2.81696 154.849 2.12709 154.849 1.20727V0H153.037V1.20727C153.037 2.0696 152.224 2.81696 151.287 2.81696H145.85C144.851 2.81696 144.101 2.12709 144.101 1.20727V0H142.289V1.20727C142.289 2.0696 141.539 2.81696 140.539 2.81696H135.102C134.165 2.81696 133.353 2.12709 133.353 1.20727V0H131.54V1.20727C131.54 2.0696 130.728 2.81696 129.791 2.81696H124.354C123.354 2.81696 122.604 2.12709 122.604 1.20727V0H120.792V1.20727C120.792 2.0696 119.98 2.81696 119.042 2.81696H113.606C112.606 2.81696 111.856 2.12709 111.856 1.20727V0H110.044V1.20727C110.044 2.0696 109.294 2.81696 108.294 2.81696H103.108C102.108 2.81696 101.358 2.12709 101.358 1.20727V0H99.5458V1.20727C99.5458 2.0696 98.7334 2.81696 97.7961 2.81696H92.3595C91.3596 2.81696 90.6098 2.12709 90.6098 1.20727V0H88.7976V1.20727C88.7976 2.0696 87.9852 2.81696 87.0479 2.81696H81.6113C80.6115 2.81696 79.8616 2.12709 79.8616 1.20727V0H78.1119V1.20727C78.1119 2.0696 77.362 2.81696 76.3622 2.81696H70.9256C69.9882 2.81696 69.1759 2.12709 69.1759 1.20727V0H67.3637V1.20727C67.3637 2.0696 66.5513 2.81696 65.614 2.81696H60.1774C59.1776 2.81696 58.4277 2.12709 58.4277 1.20727V0H56.6155V1.20727C56.6155 2.0696 55.8031 2.81696 54.8658 2.81696H49.4292C48.4918 2.81696 47.6795 2.12709 47.6795 1.20727V0H45.8673V1.20727C45.8673 2.0696 45.0549 2.81696 44.1176 2.81696H38.7435C37.7437 2.81696 36.9938 2.12709 36.9938 1.20727V0H35.1816V1.20727C35.1816 2.0696 34.3692 2.81696 33.4319 2.81696H27.9953C27.058 2.81696 26.2456 2.12709 26.2456 1.20727V0H24.4334V1.20727C24.4334 2.0696 23.621 2.81696 22.6837 2.81696H17.2471C16.3098 2.81696 15.4974 2.12709 15.4974 1.20727V0H13.6852V1.20727C13.6852 2.0696 12.8728 2.81696 11.9355 2.81696H6.49891C5.62405 2.81696 4.87418 2.0696 4.87418 1.20727V0H3.06199V1.20727C3.06199 2.0696 2.24962 2.81696 1.31228 2.81696H0V174.709V239.557V340.392V362.928V481.585H1.31228C2.31211 481.585 3.06199 482.275 3.06199 483.195V484H4.87418V483.195C4.87418 482.333 5.68654 481.585 6.62389 481.585H12.0605C12.9978 481.585 13.8102 482.275 13.8102 483.195V484H15.6224V483.195C15.6224 482.333 16.4347 481.585 17.3721 481.585H22.8087C23.8085 481.585 24.5584 482.275 24.5584 483.195V484H26.3706V483.195C26.3706 482.333 27.1829 481.585 28.1203 481.585H33.5569C34.4942 481.585 35.3066 482.275 35.3066 483.195V484H37.1188V483.195C37.1188 482.333 37.9311 481.585 38.8685 481.585H44.3051C45.3049 481.585 46.0548 482.275 46.0548 483.195V484H47.8045V483.195C47.8045 482.333 48.6168 481.585 49.5542 481.585H54.9908C55.9281 481.585 56.7405 482.275 56.7405 483.195V484H58.5527V483.195C58.5527 482.333 59.365 481.585 60.3024 481.585H65.739C66.6763 481.585 67.4887 482.275 67.4887 483.195V484H69.3009V483.195C69.3009 482.333 70.1132 481.585 71.0506 481.585H76.4871C77.487 481.585 78.2368 482.275 78.2368 483.195V484H80.049V483.195C80.049 482.333 80.8614 481.585 81.7988 481.585H87.2353C88.1727 481.585 88.985 482.275 88.985 483.195V484H90.7972V483.195C90.7972 482.333 91.6096 481.585 92.547 481.585H97.9835C98.9834 481.585 99.7332 482.275 99.7332 483.195V484H101.545V483.195C101.545 482.333 102.358 481.585 103.295 481.585H108.732C109.669 481.585 110.481 482.275 110.481 483.195V484H112.294V483.195C112.294 482.333 113.106 481.585 114.043 481.585H119.48C120.48 481.585 121.23 482.275 121.23 483.195V484H123.042V483.195C123.042 482.333 123.854 481.585 124.792 481.585H130.228C131.165 481.585 131.978 482.275 131.978 483.195V484H133.79V483.195C133.79 482.333 134.602 481.585 135.54 481.585H140.976C141.914 481.585 142.726 482.275 142.726 483.195V484H144.538V483.195C144.538 482.333 145.351 481.585 146.288 481.585H151.725C152.724 481.585 153.474 482.275 153.474 483.195V484H155.286V483.195C155.286 482.333 156.099 481.585 157.036 481.585H162.473C163.41 481.585 164.222 482.275 164.222 483.195V484H166.035V483.195C166.035 482.333 166.847 481.585 167.784 481.585H173.221C174.221 481.585 174.971 482.275 174.971 483.195V484H176.783V483.195C176.783 482.333 177.595 481.585 178.533 481.585H183.969C184.906 481.585 185.719 482.275 185.719 483.195V484H187.531V483.195C187.531 482.333 188.343 481.585 189.281 481.585H194.717C195.717 481.585 196.467 482.275 196.467 483.195V484H198.279V483.195C198.279 482.333 199.092 481.585 200.029 481.585H205.465C206.403 481.585 207.215 482.275 207.215 483.195V484H209.027V483.195C209.027 482.333 209.84 481.585 210.777 481.585H216.214C217.151 481.585 217.963 482.275 217.963 483.195V484H219.776V483.195C219.776 482.333 220.588 481.585 221.525 481.585H226.962C227.962 481.585 228.712 482.275 228.712 483.195V484H230.524V483.195C230.524 482.333 231.336 481.585 232.273 481.585H237.71C238.71 481.585 239.46 482.275 239.46 483.195V484H241.272V483.195C241.272 482.333 242.084 481.585 243.022 481.585H248.458C249.458 481.585 250.208 482.275 250.208 483.195V484H252.02V483.195C252.02 482.333 252.833 481.585 253.77 481.585H259.206C260.206 481.585 260.956 482.275 260.956 483.195V484H262.768V483.195C262.768 482.333 263.581 481.585 264.518 481.585H269.955C270.954 481.585 271.704 482.275 271.704 483.195V484H273.454V483.195C273.454 482.333 274.266 481.585 275.204 481.585H280.64C281.64 481.585 282.39 482.275 282.39 483.195V484H284.202V483.195C284.202 482.333 285.015 481.585 285.952 481.585H291.389C292.326 481.585 293.138 482.275 293.138 483.195V484H294.95V483.195C294.95 482.333 295.763 481.585 296.7 481.585H302.137C303.137 481.585 303.886 482.275 303.886 483.195V484H305.699V483.195C305.699 482.333 306.511 481.585 307.448 481.585H312.885C313.822 481.585 314.635 482.275 314.635 483.195V484H316.447V483.195C316.447 482.333 317.259 481.585 318.197 481.585H323.633C324.633 481.585 325.383 482.275 325.383 483.195V484H327.195V483.195C327.195 482.333 328.007 481.585 328.945 481.585H334.381C335.319 481.585 336.131 482.275 336.131 483.195V484H337.943V483.195C337.943 482.333 338.756 481.585 339.693 481.585H345.129C346.129 481.585 346.879 482.275 346.879 483.195V484H348.629V483.195C348.629 482.333 349.441 481.585 350.379 481.585H355.815C356.753 481.585 357.565 482.275 357.565 483.195V484H359.377V483.195C359.377 482.333 360.189 481.585 361.127 481.585H366.563C367.501 481.585 368.313 482.275 368.313 483.195V484H370.125V483.195C370.125 482.333 370.938 481.585 371.875 481.585H372.812L372 366.492Z" fill="#95F661"/>
</g>
<defs>
<clipPath id="clip0_163_112">
<rect width="372" height="484" fill="white"/>
</clipPath>
</defs>
</svg>
