<svg width="25" height="24" viewBox="0 0 25 24" fill="none" xmlns="http://www.w3.org/2000/svg">
<g clip-path="url(#clip0_60_152)">
<path d="M10.6969 16.227C11.3281 16.836 11.9344 17.418 12.5719 18.03C10.4687 20.013 8.35311 22.002 6.27186 23.964C4.18124 21.957 2.10311 19.962 0.00311279 17.946C0.528113 17.406 1.09686 16.821 1.69374 16.209C2.76561 17.277 3.82499 18.327 4.93749 19.437C4.93749 12.915 4.93749 6.474 4.93749 0.0059967C5.78436 0.0059967 6.59999 0.0059967 7.45936 0.0059967C7.45936 6.462 7.45936 12.909 7.45936 19.449C8.57811 18.333 9.62811 17.286 10.6969 16.227Z" fill="black"/>
<path d="M18.7375 9.594C17.8875 9.594 17.0875 9.594 16.2625 9.594C16.2625 6.396 16.2625 3.21 16.2625 0C19.1531 0 22.0469 0 24.9688 0C24.9688 3.18 24.9688 6.369 24.9688 9.582C24.1688 9.582 23.3625 9.582 22.5063 9.582C22.5063 8.802 22.5063 8.016 22.5063 7.212C21.2281 7.212 19.9969 7.212 18.7375 7.212C18.7375 8.001 18.7375 8.781 18.7375 9.594ZM22.5 4.77C22.5 4.05 22.4906 3.354 22.5063 2.658C22.5125 2.415 22.4219 2.361 22.1875 2.364C21.1219 2.376 20.0594 2.367 18.9938 2.37C18.9125 2.37 18.8281 2.385 18.75 2.394C18.75 3.198 18.75 3.975 18.75 4.77C19.9906 4.77 21.2125 4.77 22.5 4.77Z" fill="black"/>
<path d="M21.9625 15.615C20.0094 15.615 18.1437 15.615 16.2594 15.615C16.2594 14.808 16.2594 14.031 16.2594 13.224C19.1531 13.224 22.0469 13.224 24.9937 13.224C24.9937 13.326 24.9937 13.437 24.9937 13.545C24.9937 14.286 24.9844 15.027 25 15.768C25.0031 15.993 24.9406 16.152 24.7719 16.314C23.0219 17.982 21.2812 19.659 19.5312 21.33C19.45 21.408 19.3187 21.435 19.2125 21.483C19.25 21.528 19.2906 21.573 19.3281 21.621C21.2031 21.621 23.0781 21.621 24.975 21.621C24.975 22.425 24.975 23.202 24.975 24C22.0812 24 19.1875 24 16.2437 24C16.2437 23.892 16.2437 23.781 16.2437 23.673C16.2437 22.953 16.2594 22.233 16.2375 21.513C16.2281 21.225 16.3281 21.033 16.5375 20.835C18.25 19.197 19.9594 17.55 21.6719 15.903C21.75 15.831 21.8219 15.756 21.9625 15.615Z" fill="black"/>
</g>
<defs>
<clipPath id="clip0_60_152">
<rect width="25" height="24" fill="white"/>
</clipPath>
</defs>
</svg>
