<svg width="24" height="24" viewBox="0 0 24 24" fill="none" xmlns="http://www.w3.org/2000/svg">
<g clip-path="url(#clip0_57_39)">
<path d="M13.659 7.383C13.653 8.322 12.909 9.042 11.964 9.027C11.028 9.009 10.329 8.271 10.341 7.311C10.353 6.393 11.088 5.685 12.018 5.688C12.957 5.694 13.668 6.426 13.659 7.383Z" fill="white"/>
<path d="M12.204 18.3H11.796C11.133 18.3 10.593 17.76 10.593 17.097V11.328C10.593 10.665 11.133 10.125 11.796 10.125H12.204C12.867 10.125 13.407 10.665 13.407 11.328V17.1C13.404 17.763 12.867 18.3 12.204 18.3Z" fill="white"/>
<path d="M12 0.389999C5.52299 0.389999 0.269989 5.586 0.269989 11.994C0.269989 18.402 5.52299 23.595 12 23.595C18.477 23.595 23.73 18.399 23.73 11.991C23.73 5.583 18.477 0.389999 12 0.389999ZM11.997 21.084C6.98099 21.084 2.90399 17.001 2.90699 11.985C2.91599 6.978 6.97799 2.913 11.988 2.904C17.007 2.898 21.087 6.969 21.09 11.988C21.093 17.007 17.016 21.084 11.997 21.084Z" fill="white"/>
</g>
<defs>
<clipPath id="clip0_57_39">
<rect width="24" height="24" fill="white"/>
</clipPath>
</defs>
</svg>
