<svg width="24" height="24" viewBox="0 0 24 24" fill="none" xmlns="http://www.w3.org/2000/svg">
<g clip-path="url(#clip0_56_89)">
<path d="M0.204161 15.6349C0.368869 14.3954 1.3512 13.423 2.59157 13.2655C4.66926 13.0016 6.32196 13.0022 8.3412 13.2605C9.58086 13.419 10.5587 14.395 10.7229 15.6339C11.0011 17.7329 11.003 19.3984 10.7274 21.442C10.5624 22.6655 9.59736 23.6284 8.37372 23.7929C6.3189 24.0693 4.65563 24.0692 2.57299 23.7914C1.34168 23.6272 0.37156 22.6574 0.207674 21.4261C-0.0692034 19.3458 -0.0680724 17.6834 0.204161 15.6349Z" fill="white"/>
<path d="M0.204161 2.56765C0.368869 1.32823 1.3512 0.35577 2.59157 0.198282C4.66926 -0.065521 6.32196 -0.0649888 8.3412 0.193277C9.58086 0.351826 10.5587 1.32783 10.7229 2.56672C11.0011 4.66571 11.003 6.3312 10.7274 8.3748C10.5624 9.59832 9.59736 10.5613 8.37372 10.7258C6.3189 11.0021 4.65563 11.002 2.57299 10.7243C1.34168 10.5601 0.37156 9.59028 0.207674 8.3589C-0.0692034 6.27858 -0.0680724 4.61621 0.204161 2.56765Z" fill="white"/>
<path d="M13.2713 2.56765C13.436 1.32823 14.4184 0.35577 15.6587 0.198282C17.7364 -0.065521 19.3891 -0.0649888 21.4084 0.193277C22.648 0.351826 23.6258 1.32783 23.7901 2.56672C24.0683 4.66571 24.0702 6.3312 23.7946 8.3748C23.6296 9.59832 22.6645 10.5613 21.4409 10.7258C19.3861 11.0021 17.7228 11.002 15.6401 10.7243C14.4088 10.5601 13.4387 9.59028 13.2748 8.3589C12.998 6.27858 12.9991 4.61621 13.2713 2.56765Z" fill="white"/>
<path d="M13.2713 15.6349C13.436 14.3954 14.4184 13.423 15.6587 13.2655C17.7364 13.0016 19.3891 13.0022 21.4084 13.2605C22.648 13.419 23.6258 14.395 23.7901 15.6339C24.0683 17.7329 24.0702 19.3984 23.7946 21.442C23.6296 22.6655 22.6645 23.6284 21.4409 23.7929C19.3861 24.0693 17.7228 24.0692 15.6401 23.7914C14.4088 23.6272 13.4387 22.6574 13.2748 21.4261C12.998 19.3458 12.9991 17.6834 13.2713 15.6349Z" fill="white"/>
</g>
<defs>
<clipPath id="clip0_56_89">
<rect width="24" height="24" fill="white"/>
</clipPath>
</defs>
</svg>
