<svg width="24" height="24" viewBox="0 0 24 24" fill="none" xmlns="http://www.w3.org/2000/svg">
<g clip-path="url(#clip0_57_8)">
<path d="M23.898 1.542C23.61 0.735 23.055 0.225 22.209 0.042C22.164 0.03 22.119 0.015 22.077 0H13.08C12.393 0.126 11.904 0.552 11.427 1.029C7.971 4.491 4.512 7.956 1.044 11.406C0.564 11.889 0.123 12.381 0 13.077V13.686C0.132 14.379 0.57 14.868 1.056 15.351C3.594 17.877 6.126 20.406 8.652 22.947C9.129 23.43 9.621 23.868 10.317 24.003H10.926C11.613 23.88 12.105 23.454 12.579 22.977C16.122 19.41 19.677 15.858 23.235 12.309C23.631 11.916 23.88 11.457 24 10.92V1.917C23.967 1.794 23.94 1.662 23.898 1.542ZM12.027 5.529C13.239 5.541 14.211 6.537 14.205 7.761C14.193 8.976 13.203 9.948 11.982 9.942C10.767 9.936 9.789 8.946 9.795 7.725C9.801 6.504 10.8 5.52 12.027 5.529ZM11.979 18.468C10.767 18.456 9.792 17.463 9.795 16.245C9.801 15.03 10.791 14.052 12.012 14.058C13.23 14.061 14.208 15.045 14.208 16.266C14.205 17.49 13.203 18.477 11.979 18.468ZM16.467 12.699C14.976 12.702 13.485 12.699 11.994 12.699H7.569C7.311 12.699 7.086 12.633 6.927 12.423C6.762 12.207 6.732 11.967 6.837 11.718C6.942 11.466 7.146 11.331 7.41 11.292C7.464 11.286 7.521 11.289 7.572 11.289H16.425C16.863 11.289 17.16 11.526 17.208 11.901C17.262 12.357 16.947 12.699 16.467 12.699ZM19.512 5.295C19.041 5.295 18.657 4.923 18.657 4.467C18.657 4.011 19.041 3.639 19.512 3.639C19.983 3.639 20.367 4.011 20.367 4.467C20.367 4.923 19.986 5.295 19.512 5.295Z" fill="white"/>
<path d="M12.525 8.823C12.54 8.805 12.552 8.79 12.564 8.772C12.549 8.79 12.537 8.805 12.525 8.823Z" fill="white"/>
<path d="M12 17.217C12.5269 17.217 12.954 16.7899 12.954 16.263C12.954 15.7361 12.5269 15.309 12 15.309C11.4731 15.309 11.046 15.7361 11.046 16.263C11.046 16.7899 11.4731 17.217 12 17.217Z" fill="white"/>
<path d="M12 8.688C12.5269 8.688 12.954 8.26088 12.954 7.734C12.954 7.20712 12.5269 6.78 12 6.78C11.4731 6.78 11.046 7.20712 11.046 7.734C11.046 8.26088 11.4731 8.688 12 8.688Z" fill="white"/>
</g>
<defs>
<clipPath id="clip0_57_8">
<rect width="24" height="24" fill="white"/>
</clipPath>
</defs>
</svg>
