<svg width="46" height="46" viewBox="0 0 46 46" fill="none" xmlns="http://www.w3.org/2000/svg">
<mask id="mask0_77_758" style="mask-type:luminance" maskUnits="userSpaceOnUse" x="0" y="10" width="46" height="26">
<path d="M46 10.0855H0V35.9202H46V10.0855Z" fill="white"/>
</mask>
<g mask="url(#mask0_77_758)">
<path d="M46 10.0912H0V35.9202H46V10.0912Z" fill="white"/>
</g>
<mask id="mask1_77_758" style="mask-type:luminance" maskUnits="userSpaceOnUse" x="0" y="10" width="46" height="26">
<path d="M46 10.0855H0V35.9202H46V10.0855Z" fill="white"/>
</mask>
<g mask="url(#mask1_77_758)">
<path d="M46 33.0625H0V35.9145H46V33.0625Z" fill="#E64C3C"/>
</g>
<mask id="mask2_77_758" style="mask-type:luminance" maskUnits="userSpaceOnUse" x="0" y="10" width="46" height="26">
<path d="M46 10.0855H0V35.9202H46V10.0855Z" fill="white"/>
</mask>
<g mask="url(#mask2_77_758)">
<path d="M46 27.3067H0V30.2047H46V27.3067Z" fill="#E64C3C"/>
</g>
<mask id="mask3_77_758" style="mask-type:luminance" maskUnits="userSpaceOnUse" x="0" y="10" width="46" height="26">
<path d="M46 10.0855H0V35.9202H46V10.0855Z" fill="white"/>
</mask>
<g mask="url(#mask3_77_758)">
<path d="M46 21.5567H0V24.4547H46V21.5567Z" fill="#E64C3C"/>
</g>
<mask id="mask4_77_758" style="mask-type:luminance" maskUnits="userSpaceOnUse" x="0" y="10" width="46" height="26">
<path d="M46 10.0855H0V35.9202H46V10.0855Z" fill="white"/>
</mask>
<g mask="url(#mask4_77_758)">
<path d="M46 15.8412H0V18.7392H46V15.8412Z" fill="#E64C3C"/>
</g>
<mask id="mask5_77_758" style="mask-type:luminance" maskUnits="userSpaceOnUse" x="0" y="10" width="46" height="26">
<path d="M46 10.0855H0V35.9202H46V10.0855Z" fill="white"/>
</mask>
<g mask="url(#mask5_77_758)">
<path d="M46 10.0912H0V12.9892H46V10.0912Z" fill="#E64C3C"/>
</g>
<mask id="mask6_77_758" style="mask-type:luminance" maskUnits="userSpaceOnUse" x="0" y="10" width="46" height="26">
<path d="M46 10.0855H0V35.9202H46V10.0855Z" fill="white"/>
</mask>
<g mask="url(#mask6_77_758)">
<path d="M21.528 10.0855H0V24.449H21.528V10.0855Z" fill="#2880BA"/>
</g>
<mask id="mask7_77_758" style="mask-type:luminance" maskUnits="userSpaceOnUse" x="0" y="10" width="46" height="26">
<path d="M46 10.0855H0V35.9202H46V10.0855Z" fill="white"/>
</mask>
<g mask="url(#mask7_77_758)">
<path d="M2.17351 17.9227L2.42076 18.5035L3.04751 18.561L2.57601 18.975L2.71401 19.5902L2.17351 19.2682L1.62726 19.5902L1.76526 18.975L1.29376 18.561L1.92051 18.5035L2.17351 17.9227Z" fill="#EDF0F1"/>
<path d="M6.46874 17.9227L6.71599 18.5035L7.34849 18.561L6.87124 18.975L7.00924 19.5902L6.46874 19.2682L5.92249 19.5902L6.06624 18.975L5.58899 18.561L6.21574 18.5035L6.46874 17.9227Z" fill="#EDF0F1"/>
<path d="M10.764 17.9227L11.0113 18.5035L11.6438 18.561L11.1665 18.975L11.3045 19.5902L10.764 19.2682L10.2235 19.5902L10.3615 18.975L9.88428 18.561L10.5168 18.5035L10.764 17.9227Z" fill="#EDF0F1"/>
<path d="M15.0592 17.9227L15.3122 18.5035L15.939 18.561L15.4675 18.975L15.6055 19.5902L15.0592 19.2682L14.5187 19.5902L14.6567 18.975L14.1852 18.561L14.812 18.5035L15.0592 17.9227Z" fill="#EDF0F1"/>
<path d="M19.3603 17.9227L19.6075 18.5035L20.2343 18.561L19.7628 18.975L19.9008 19.5902L19.3603 19.2682L18.814 19.5902L18.952 18.975L18.4805 18.561L19.1073 18.5035L19.3603 17.9227Z" fill="#EDF0F1"/>
<path d="M2.17351 20.907L2.42076 21.4877L3.04751 21.5452L2.57601 21.9592L2.71401 22.5745L2.17351 22.2525L1.62726 22.5745L1.76526 21.9592L1.29376 21.5452L1.92051 21.4877L2.17351 20.907Z" fill="#EDF0F1"/>
<path d="M6.46874 20.907L6.71599 21.4877L7.34849 21.5452L6.87124 21.9592L7.00924 22.5745L6.46874 22.2525L5.92249 22.5745L6.06624 21.9592L5.58899 21.5452L6.21574 21.4877L6.46874 20.907Z" fill="#EDF0F1"/>
<path d="M10.764 20.907L11.0113 21.4877L11.6438 21.5452L11.1665 21.9592L11.3045 22.5745L10.764 22.2525L10.2235 22.5745L10.3615 21.9592L9.88428 21.5452L10.5168 21.4877L10.764 20.907Z" fill="#EDF0F1"/>
<path d="M15.0592 20.907L15.3122 21.4877L15.939 21.5452L15.4675 21.9592L15.6055 22.5745L15.0592 22.2525L14.5187 22.5745L14.6567 21.9592L14.1852 21.5452L14.812 21.4877L15.0592 20.907Z" fill="#EDF0F1"/>
<path d="M19.3603 20.907L19.6075 21.4877L20.2343 21.5452L19.7628 21.9592L19.9008 22.5745L19.3603 22.2525L18.814 22.5745L18.952 21.9592L18.4805 21.5452L19.1073 21.4877L19.3603 20.907Z" fill="#EDF0F1"/>
<path d="M2.17351 14.9385L2.42076 15.5135L3.04751 15.5767L2.57601 15.9907L2.71401 16.606L2.17351 16.284L1.62726 16.606L1.76526 15.9907L1.29376 15.5767L1.92051 15.5135L2.17351 14.9385Z" fill="#EDF0F1"/>
<path d="M6.46874 14.9385L6.71599 15.5135L7.34849 15.5767L6.87124 15.9907L7.00924 16.606L6.46874 16.284L5.92249 16.606L6.06624 15.9907L5.58899 15.5767L6.21574 15.5135L6.46874 14.9385Z" fill="#EDF0F1"/>
<path d="M10.764 14.9385L11.0113 15.5135L11.6438 15.5767L11.1665 15.9907L11.3045 16.606L10.764 16.284L10.2235 16.606L10.3615 15.9907L9.88428 15.5767L10.5168 15.5135L10.764 14.9385Z" fill="#EDF0F1"/>
<path d="M15.0592 14.9385L15.3122 15.5135L15.939 15.5767L15.4675 15.9907L15.6055 16.606L15.0592 16.284L14.5187 16.606L14.6567 15.9907L14.1852 15.5767L14.812 15.5135L15.0592 14.9385Z" fill="#EDF0F1"/>
<path d="M19.3603 14.9385L19.6075 15.5135L20.2343 15.5767L19.7628 15.9907L19.9008 16.606L19.3603 16.284L18.814 16.606L18.952 15.9907L18.4805 15.5767L19.1073 15.5135L19.3603 14.9385Z" fill="#EDF0F1"/>
<path d="M4.31827 13.6217L4.57127 14.2025L5.19802 14.26L4.72077 14.674L4.86452 15.2892L4.31827 14.9672L3.77777 15.2892L3.91577 14.674L3.44427 14.26L4.07102 14.2025L4.31827 13.6217Z" fill="#EDF0F1"/>
<path d="M8.6135 13.6217L8.8665 14.2025L9.49325 14.26L9.02175 14.674L9.15975 15.2892L8.6135 14.9672L8.073 15.2892L8.211 14.674L7.7395 14.26L8.36625 14.2025L8.6135 13.6217Z" fill="#EDF0F1"/>
<path d="M12.9145 13.6217L13.1618 14.2025L13.7885 14.26L13.317 14.674L13.455 15.2892L12.9145 14.9672L12.3683 15.2892L12.5063 14.674L12.0348 14.26L12.6615 14.2025L12.9145 13.6217Z" fill="#EDF0F1"/>
<path d="M17.2098 13.6217L17.457 14.2025L18.0895 14.26L17.6123 14.674L17.7503 15.2892L17.2098 14.9672L16.6693 15.2892L16.8073 14.674L16.33 14.26L16.9625 14.2025L17.2098 13.6217Z" fill="#EDF0F1"/>
<path d="M4.40453 16.3645L4.65178 16.9452L5.27853 17.0027L4.80703 17.4225L4.94503 18.0377L4.40453 17.7157L3.85828 18.0377L3.99628 17.4225L3.52478 17.0027L4.15153 16.9452L4.40453 16.3645Z" fill="#EDF0F1"/>
<path d="M8.69976 16.3645L8.94701 16.9452L9.57951 17.0027L9.10226 17.4225L9.24026 18.0377L8.69976 17.7157L8.15351 18.0377L8.29726 17.4225L7.82001 17.0027L8.44676 16.9452L8.69976 16.3645Z" fill="#EDF0F1"/>
<path d="M12.995 16.3645L13.2422 16.9452L13.8747 17.0027L13.3975 17.4225L13.5355 18.0377L12.995 17.7157L12.4545 18.0377L12.5925 17.4225L12.1152 17.0027L12.7477 16.9452L12.995 16.3645Z" fill="#EDF0F1"/>
<path d="M17.2903 16.3645L17.5433 16.9452L18.17 17.0027L17.6985 17.4225L17.8365 18.0377L17.2903 17.7157L16.7498 18.0377L16.8878 17.4225L16.4163 17.0027L17.043 16.9452L17.2903 16.3645Z" fill="#EDF0F1"/>
<path d="M4.48504 19.2337L4.73229 19.8145L5.36479 19.872L4.88754 20.2917L5.02554 20.907L4.48504 20.585L3.94454 20.907L4.08254 20.2917L3.60529 19.872L4.23779 19.8145L4.48504 19.2337Z" fill="#EDF0F1"/>
<path d="M8.78025 19.2337L9.03325 19.8145L9.66 19.872L9.18275 20.2917L9.3265 20.907L8.78025 20.585L8.23975 20.907L8.37775 20.2917L7.90625 19.872L8.533 19.8145L8.78025 19.2337Z" fill="#EDF0F1"/>
<path d="M13.0755 19.2337L13.3285 19.8145L13.9553 19.872L13.4838 20.2917L13.6218 20.907L13.0755 20.585L12.535 20.907L12.673 20.2917L12.2015 19.872L12.8283 19.8145L13.0755 19.2337Z" fill="#EDF0F1"/>
<path d="M17.3765 19.2337L17.6238 19.8145L18.2505 19.872L17.779 20.2917L17.917 20.907L17.3765 20.585L16.8303 20.907L16.9683 20.2917L16.4968 19.872L17.1235 19.8145L17.3765 19.2337Z" fill="#EDF0F1"/>
<path d="M2.17351 11.9542L2.42076 12.5292L3.04751 12.5925L2.57601 13.0065L2.71401 13.6217L2.17351 13.2997L1.62726 13.6217L1.76526 13.0065L1.29376 12.5925L1.92051 12.5292L2.17351 11.9542Z" fill="#EDF0F1"/>
<path d="M6.46874 11.9542L6.71599 12.5292L7.34849 12.5925L6.87124 13.0065L7.00924 13.6217L6.46874 13.2997L5.92249 13.6217L6.06624 13.0065L5.58899 12.5925L6.21574 12.5292L6.46874 11.9542Z" fill="#EDF0F1"/>
<path d="M10.764 11.9542L11.0113 12.5292L11.6438 12.5925L11.1665 13.0065L11.3045 13.6217L10.764 13.2997L10.2235 13.6217L10.3615 13.0065L9.88428 12.5925L10.5168 12.5292L10.764 11.9542Z" fill="#EDF0F1"/>
<path d="M15.0592 11.9542L15.3122 12.5292L15.939 12.5925L15.4675 13.0065L15.6055 13.6217L15.0592 13.2997L14.5187 13.6217L14.6567 13.0065L14.1852 12.5925L14.812 12.5292L15.0592 11.9542Z" fill="#EDF0F1"/>
<path d="M19.3603 11.9542L19.6075 12.5292L20.2343 12.5925L19.7628 13.0065L19.9008 13.6217L19.3603 13.2997L18.814 13.6217L18.952 13.0065L18.4805 12.5925L19.1073 12.5292L19.3603 11.9542Z" fill="#EDF0F1"/>
</g>
</svg>
