<svg width="25" height="24" viewBox="0 0 25 24" fill="none" xmlns="http://www.w3.org/2000/svg">
<g clip-path="url(#clip0_60_156)">
<path d="M10.6781 7.752C9.64374 6.723 8.59061 5.673 7.48124 4.569C7.48124 11.082 7.48124 17.529 7.48124 23.997C6.63124 23.997 5.82186 23.997 4.97186 23.997C4.97186 17.553 4.97186 11.106 4.97186 4.656C4.94374 4.644 4.91874 4.629 4.89061 4.617C3.83436 5.667 2.78124 6.714 1.69999 7.788C1.10936 7.185 0.540613 6.603 0.00311279 6.048C2.09374 4.044 4.17186 2.049 6.27186 0.0329971C8.34686 1.986 10.4594 3.975 12.5656 5.961C11.9281 6.564 11.3156 7.146 10.6781 7.752Z" fill="black"/>
<path d="M24.9812 14.412C24.9812 17.619 24.9812 20.796 24.9812 23.997C24.1625 23.997 23.3562 23.997 22.5062 23.997C22.5062 23.22 22.5062 22.446 22.5062 21.648C21.2343 21.648 20.0031 21.648 18.7375 21.648C18.7375 22.428 18.7375 23.202 18.7375 23.997C17.8968 23.997 17.0875 23.997 16.2593 23.997C16.2593 20.802 16.2593 17.616 16.2593 14.409C19.1625 14.412 22.0562 14.412 24.9812 14.412ZM22.4812 16.839C21.2218 16.839 19.9843 16.839 18.7562 16.839C18.7562 17.643 18.7562 18.417 18.7562 19.179C20.0125 19.179 21.2437 19.179 22.4812 19.179C22.4812 18.384 22.4812 17.616 22.4812 16.839Z" fill="black"/>
<path d="M16.2531 2.385C16.2531 1.56 16.2531 0.789 16.2531 0C19.1531 0 22.05 0 24.9781 0C24.9812 0.093 24.9906 0.192 24.9906 0.291C24.9906 1.041 24.9843 1.794 24.9968 2.544C25 2.769 24.9343 2.928 24.7656 3.09C23.0156 4.758 21.2781 6.435 19.5312 8.106C19.4625 8.172 19.3718 8.217 19.2937 8.274C19.3093 8.301 19.3218 8.331 19.3375 8.358C21.2062 8.358 23.0718 8.358 24.9656 8.358C24.9656 9.183 24.9656 9.969 24.9656 10.779C22.075 10.779 19.1812 10.779 16.2593 10.779C16.2531 10.674 16.2406 10.575 16.2406 10.476C16.2375 9.714 16.2281 8.952 16.25 8.193C16.2531 8.028 16.3375 7.827 16.4562 7.71C18.1812 6.033 19.9187 4.368 21.6562 2.703C21.7468 2.616 21.8687 2.562 21.9781 2.493C21.9531 2.457 21.9281 2.421 21.9031 2.385C20.0343 2.385 18.1625 2.385 16.2531 2.385Z" fill="black"/>
</g>
<defs>
<clipPath id="clip0_60_156">
<rect width="25" height="24" fill="white"/>
</clipPath>
</defs>
</svg>
